<svg width="300" height="300" viewBox="0 0 300 300" fill="none" xmlns="http://www.w3.org/2000/svg">
<circle cx="150" cy="150" r="149.5" fill="#FAFAFA" stroke="black"/>
<path d="M217.4 218.6L215 226C211.533 226.267 208.933 226.4 207.2 226.4C199.2 226.4 192.667 223 187.6 216.2C182.667 209.533 180.2 200.8 180.2 190C180.2 183.467 181.667 171.133 184.6 153C187.667 134.733 191.2 118.067 195.2 103C196 99.6667 196.4 97.4667 196.4 96.4C196.4 95.3333 195.933 94.8 195 94.8C194.067 94.8 191.067 99.8 186 109.8C181.067 119.667 175.133 131.867 168.2 146.4C161.267 160.8 157.267 169.067 156.2 171.2C155.267 173.2 154.467 174.867 153.8 176.2C153.267 177.4 152.067 179.667 150.2 183C148.467 186.2 146.8 189.067 145.2 191.6C140.8 198.267 137.333 201.6 134.8 201.6C133.067 201.6 131.133 201.133 129 200.2C127 199.267 125.667 198.267 125 197.2C123.533 194.933 122.8 187.867 122.8 176C122.8 151.2 124.8 127.533 128.8 105C130.133 97.5333 130.8 93.6 130.8 93.2C130.8 91.8667 130.267 91.2 129.2 91.2C127.067 91.2 123.667 97.8667 119 111.2L113.2 127.8C104.667 151.933 96 170.733 87.2 184.2C78.5333 197.667 68.5333 207.133 57.2 212.6L52 201.6C64.9333 192 74.8667 182.2 81.8 172.2C88.8667 162.2 96.5333 146.067 104.8 123.8L111.6 105.6C116.267 92.9333 120.333 83.9333 123.8 78.6C127.267 73.1333 131.133 70.4 135.4 70.4C142.467 70.4 146 74.6667 146 83.2C146 83.8667 144.733 97.4 142.2 123.8C139.667 150.067 138.4 167.4 138.4 175.8C138.4 178.2 138.8 179.467 139.6 179.6C140.267 179.6 141 178.933 141.8 177.6C152.6 159.6 162.933 140 172.8 118.8C174 116.133 176.067 111.533 179 105C181.933 98.4667 184.8 92.6667 187.6 87.6C190.4 82.5333 192.533 79.4667 194 78.4C195.467 77.2 197.8 76.6 201 76.6C204.2 76.6 206.933 77.8 209.2 80.2C211.6 82.4667 212.8 85.2 212.8 88.4C212.8 91.6 212.333 95.2667 211.4 99.4C201 150.2 195.8 180.6 195.8 190.6C195.8 200.467 197.4 207.2 200.6 210.8C203.8 214.533 209.4 217.133 217.4 218.6Z" fill="black"/>
</svg>
